{"title":"Yogi Bear  2010 TS XViD SAFCuk009 {DragonTrG}","uid":6172085,"size":1223821118,"categoryP":"video","categoryS":"movies","magnet":"?xt=urn:btih:0c0961dedcb3503158922de8f554820164790b04&amp;dn=Yogi+Bear++2010+TS+XViD+SAFCuk009+%7BDragonTrG%7D&amp;tr=udp%3A%2F%2Ftracker.openbittorrent.com%3A80&amp;tr=udp%3A%2F%2Fopen.demonii.com%3A1337&amp;tr=udp%3A%2F%2Ftracker.coppersurfer.tk%3A6969&amp;tr=udp%3A%2F%2Fexodus.desync.com%3A6969","seeders":1,"leechers":0,"uploader":"SAFCukO09","files":4,"time":1297620834,"description":"Format : AVI\nFormat/Info : Audio Video Interleave\nFile size : 1.14 GiB\nDuration : 1h 12mn\nOverall bit rate : 2 233 Kbps\nWriting application : Lavf52.39.1\nWriting library : VirtualDub build 32839/release\n\nVideo\nID : 0\nFormat : MPEG-4 Visual\nFormat profile : Advanced Simple@L5\nFormat settings, BVOP : Yes\nFormat settings, QPel : No\nFormat settings, GMC : No warppoints\nFormat settings, Matrix : Custom\nCodec ID : XVID\nCodec ID/Hint : XviD\nDuration : 1h 12mn\nBit rate : 2 000 Kbps\nWidth : 720 pixels\nHeight : 404 pixels\nDisplay aspect ratio : 16:9\nFrame rate : 25.000 fps\nColor space : YUV\nChroma subsampling : 4:2:0\nBit depth : 8 bits\nScan type : Progressive\nBits/(Pixel*Frame) : 0.275\nStream size : 1.02 GiB (90%)\nWriting library : XviD 1.2.1 (UTC 2008-12-04)\n\nAudio\nID : 1\nFormat : AC-3\nFormat/Info : Audio Coding 3\nMode extension : CM (complete main)\nCodec ID : 2000\nDuration : 1h 12mn\nBit rate mode : Constant\nBit rate : 224 Kbps\nChannel(s) : 2 channels\nChannel positions : Front: L R\nSampling rate : 48.0 KHz\nBit depth : 16 bits\nStream size : 117 MiB (10%)\nAlignment : Aligned on interleaves\nInterleave, duration : 40 ms (1.00 video frame)\nInterleave, preload duration : 512 ms\n\n &lt;a href=&quot;\nhttp://www.imdb.com/title/tt1302067/&quot; rel=&quot;nofollow&quot; target=&quot;_NEW&quot;&gt;\nhttp://www.imdb.com/title/tt1302067/&lt;/a&gt;\n\n\nUsers: 3.7/10 (1,899 votes) 38 reviews | Critics: 90 reviews Metascore: 35/100 (based on 23 reviews from Metacritic.com)\n\n\n\nStoryline\n\nJellystone Park is celebrating its 100 anniversary, however it may be for the last time, because attendance is down and Mayor Brown wants to close the park and sell the land. If the park is closed, Yogi Bear and Boo Boo will lose their home. They join forces with Ranger Smith to save Jellystone from closing forever. Yogi must really prove in this endeavor that he is &quot;smarter than the average bear&quot;.\n\nDirector:\nEric Brevig\nWriters:\nJeffrey Ventimilia, Joshua Sternin, and 1 more credit Ã‚Â»\nStars:\nDan Aykroyd, Justin Timberlake and Anna Faris\n","torrent":{"xt":"urn:btih:0c0961dedcb3503158922de8f554820164790b04","amp;dn":"Yogi+Bear++2010+TS+XViD+SAFCuk009+%7BDragonTrG%7D","amp;tr":["udp%3A%2F%2Ftracker.openbittorrent.com%3A80","udp%3A%2F%2Fopen.demonii.com%3A1337","udp%3A%2F%2Ftracker.coppersurfer.tk%3A6969","udp%3A%2F%2Fexodus.desync.com%3A6969"],"infoHash":"0c0961dedcb3503158922de8f554820164790b04","infoHashBuffer":{"type":"Buffer","data":[12,9,97,222,220,179,80,49,88,146,45,232,245,84,130,1,100,121,11,4]},"announce":[],"urlList":[]}}